STARTFONT 2.1
FONT -Monotype-Courier-Regular-I-Normal--17-120-100-100-M-84-iso8859-5
SIZE 12 100 100
FONTBOUNDINGBOX 13 17 -1 -4

STARTPROPERTIES 24
FOUNDRY "Monotype"
FAMILY_NAME "Courier"
WEIGHT_NAME "Regular"
SLANT "I"
SETWIDTH_NAME "Normal"
ADD_STYLE_NAME ""
PIXEL_SIZE 17
POINT_SIZE 120
RESOLUTION_X 100
RESOLUTION_Y 100
SPACING "M"
AVERAGE_WIDTH 84
CHARSET_REGISTRY "iso8859"
CHARSET_ENCODING "5"
FACE_NAME "Courier Inclined ISO Latin Cyrillic"
_DEC_DEVICE_FONTNAMES "PS=courier-in-latcyrillic"
COPYRIGHT "Copyright (c) 1994 Monotype Typography Ltd."
CAP_HEIGHT 10
X_HEIGHT 7
WEIGHT 10
QUAD_WIDTH 10
DEFAULT_CHAR 160
FONT_DESCENT 4
FONT_ASCENT 14
ENDPROPERTIES

CHARS 191

STARTCHAR space
ENCODING 32
SWIDTH 600 0
DWIDTH 10 0
BBX 0 0 0 0
BITMAP
ENDCHAR

STARTCHAR exclam
ENCODING 33
SWIDTH 600 0
DWIDTH 10 0
BBX 4 10 4 0
BITMAP
10
10
20
20
20
40
40
00
C0
C0
ENDCHAR

STARTCHAR quotedbl
ENCODING 34
SWIDTH 600 0
DWIDTH 10 0
BBX 7 4 3 6
BITMAP
66
CC
CC
88
ENDCHAR

STARTCHAR numbersign
ENCODING 35
SWIDTH 600 0
DWIDTH 10 0
BBX 8 12 1 -1
BITMAP
12
12
12
12
7F
24
24
FE
48
48
48
48
ENDCHAR

STARTCHAR dollar
ENCODING 36
SWIDTH 600 0
DWIDTH 10 0
BBX 8 14 1 -2
BITMAP
08
08
1D
23
41
40
3C
02
82
C4
B8
10
10
10
ENDCHAR

STARTCHAR percent
ENCODING 37
SWIDTH 600 0
DWIDTH 10 0
BBX 9 11 1 0
BITMAP
7000
C800
8800
9800
7380
1C00
EE00
1900
1100
1300
0E00
ENDCHAR

STARTCHAR ampersand
ENCODING 38
SWIDTH 600 0
DWIDTH 10 0
BBX 8 10 1 0
BITMAP
1C
22
20
10
30
4B
84
88
94
66
ENDCHAR

STARTCHAR quoteright
ENCODING 39
SWIDTH 600 0
DWIDTH 10 0
BBX 4 4 4 6
BITMAP
30
20
40
80
ENDCHAR

STARTCHAR parenleft
ENCODING 40
SWIDTH 600 0
DWIDTH 10 0
BBX 4 13 3 -3
BITMAP
10
20
20
40
40
80
80
80
80
80
80
40
40
ENDCHAR

STARTCHAR parenright
ENCODING 41
SWIDTH 600 0
DWIDTH 10 0
BBX 4 13 3 -3
BITMAP
20
20
10
10
10
10
10
10
20
20
40
40
80
ENDCHAR

STARTCHAR asterisk
ENCODING 42
SWIDTH 600 0
DWIDTH 10 0
BBX 6 6 3 4
BITMAP
10
94
78
30
50
90
ENDCHAR

STARTCHAR plus
ENCODING 43
SWIDTH 600 0
DWIDTH 10 0
BBX 8 9 2 0
BITMAP
08
08
08
08
FF
10
10
10
10
ENDCHAR

STARTCHAR comma
ENCODING 44
SWIDTH 600 0
DWIDTH 10 0
BBX 4 4 3 -2
BITMAP
30
20
40
80
ENDCHAR

STARTCHAR minus
ENCODING 45
SWIDTH 600 0
DWIDTH 10 0
BBX 8 1 2 4
BITMAP
FF
ENDCHAR

STARTCHAR period
ENCODING 46
SWIDTH 600 0
DWIDTH 10 0
BBX 2 2 4 0
BITMAP
C0
C0
ENDCHAR

STARTCHAR slash
ENCODING 47
SWIDTH 600 0
DWIDTH 10 0
BBX 8 14 2 -2
BITMAP
01
01
02
02
04
04
08
10
10
20
40
40
80
80
ENDCHAR

STARTCHAR zero
ENCODING 48
SWIDTH 600 0
DWIDTH 10 0
BBX 7 11 2 0
BITMAP
1C
22
42
42
42
82
84
84
84
88
70
ENDCHAR

STARTCHAR one
ENCODING 49
SWIDTH 600 0
DWIDTH 10 0
BBX 6 11 2 0
BITMAP
0C
34
04
04
08
08
08
10
10
10
FC
ENDCHAR

STARTCHAR two
ENCODING 50
SWIDTH 600 0
DWIDTH 10 0
BBX 8 11 1 0
BITMAP
1E
21
41
01
02
0C
10
20
40
84
FC
ENDCHAR

STARTCHAR three
ENCODING 51
SWIDTH 600 0
DWIDTH 10 0
BBX 8 11 1 0
BITMAP
1E
21
01
01
02
1C
02
02
02
84
78
ENDCHAR

STARTCHAR four
ENCODING 52
SWIDTH 600 0
DWIDTH 10 0
BBX 7 11 2 0
BITMAP
06
0A
12
22
24
44
84
FE
08
08
3C
ENDCHAR

STARTCHAR five
ENCODING 53
SWIDTH 600 0
DWIDTH 10 0
BBX 9 11 1 0
BITMAP
1F80
1000
1000
2000
3C00
2200
0100
0100
0100
C200
3C00
ENDCHAR

STARTCHAR six
ENCODING 54
SWIDTH 600 0
DWIDTH 10 0
BBX 8 11 2 0
BITMAP
0F
30
20
40
9C
A2
C2
82
82
44
38
ENDCHAR

STARTCHAR seven
ENCODING 55
SWIDTH 600 0
DWIDTH 10 0
BBX 7 11 2 0
BITMAP
FE
82
02
04
04
08
08
10
10
20
20
ENDCHAR

STARTCHAR eight
ENCODING 56
SWIDTH 600 0
DWIDTH 10 0
BBX 8 11 1 0
BITMAP
1E
21
41
41
42
3C
42
82
82
84
78
ENDCHAR

STARTCHAR nine
ENCODING 57
SWIDTH 600 0
DWIDTH 10 0
BBX 7 11 2 0
BITMAP
38
44
82
82
86
8A
72
04
08
18
E0
ENDCHAR

STARTCHAR colon
ENCODING 58
SWIDTH 600 0
DWIDTH 10 0
BBX 3 7 4 0
BITMAP
60
60
00
00
00
C0
C0
ENDCHAR

STARTCHAR semicolon
ENCODING 59
SWIDTH 600 0
DWIDTH 10 0
BBX 5 9 3 -2
BITMAP
18
18
00
00
00
30
20
40
80
ENDCHAR

STARTCHAR less
ENCODING 60
SWIDTH 600 0
DWIDTH 10 0
BBX 8 8 1 1
BITMAP
03
0C
30
C0
40
30
08
06
ENDCHAR

STARTCHAR equal
ENCODING 61
SWIDTH 600 0
DWIDTH 10 0
BBX 9 4 1 3
BITMAP
7F80
0000
0000
FF00
ENDCHAR

STARTCHAR greater
ENCODING 62
SWIDTH 600 0
DWIDTH 10 0
BBX 8 8 1 1
BITMAP
60
10
0C
02
03
0C
30
C0
ENDCHAR

STARTCHAR question
ENCODING 63
SWIDTH 600 0
DWIDTH 10 0
BBX 6 10 4 0
BITMAP
F8
84
04
04
18
60
40
00
C0
C0
ENDCHAR

STARTCHAR at
ENCODING 64
SWIDTH 600 0
DWIDTH 10 0
BBX 8 12 1 -2
BITMAP
0E
31
21
47
49
92
92
8F
80
80
44
38
ENDCHAR

STARTCHAR A
ENCODING 65
SWIDTH 600 0
DWIDTH 10 0
BBX 10 10 0 0
BITMAP
0F00
0280
0480
0880
0880
1080
3F80
2080
4080
E1C0
ENDCHAR

STARTCHAR B
ENCODING 66
SWIDTH 600 0
DWIDTH 10 0
BBX 9 10 0 0
BITMAP
3F00
1080
1080
2100
3F00
2080
2080
4080
4100
FE00
ENDCHAR

STARTCHAR C
ENCODING 67
SWIDTH 600 0
DWIDTH 10 0
BBX 10 10 1 0
BITMAP
1E40
2180
4080
4000
8000
8000
8000
8100
4300
3C00
ENDCHAR

STARTCHAR D
ENCODING 68
SWIDTH 600 0
DWIDTH 10 0
BBX 10 10 0 0
BITMAP
3F00
1080
1040
2040
2040
2040
2080
4080
4100
FE00
ENDCHAR

STARTCHAR E
ENCODING 69
SWIDTH 600 0
DWIDTH 10 0
BBX 10 10 0 0
BITMAP
3FC0
1040
1040
2200
3E00
2400
2000
4100
4100
FF00
ENDCHAR

STARTCHAR F
ENCODING 70
SWIDTH 600 0
DWIDTH 10 0
BBX 10 10 0 0
BITMAP
3FC0
1040
1040
2200
3E00
2400
2000
4000
4000
F000
ENDCHAR

STARTCHAR G
ENCODING 71
SWIDTH 600 0
DWIDTH 10 0
BBX 10 10 1 0
BITMAP
1E40
2180
4080
4000
8000
8F80
8100
8100
4200
3C00
ENDCHAR

STARTCHAR H
ENCODING 72
SWIDTH 600 0
DWIDTH 10 0
BBX 11 10 0 0
BITMAP
38E0
1040
1040
2080
3F80
2080
2080
4100
4100
E380
ENDCHAR

STARTCHAR I
ENCODING 73
SWIDTH 600 0
DWIDTH 10 0
BBX 9 10 1 0
BITMAP
3F80
0400
0400
0800
0800
0800
0800
1000
1000
FE00
ENDCHAR

STARTCHAR J
ENCODING 74
SWIDTH 600 0
DWIDTH 10 0
BBX 10 10 0 0
BITMAP
0FC0
0100
0100
0200
0200
0200
8200
8400
C400
3800
ENDCHAR

STARTCHAR K
ENCODING 75
SWIDTH 600 0
DWIDTH 10 0
BBX 10 10 0 0
BITMAP
39C0
1100
1200
2400
3800
2400
2400
4200
4200
E300
ENDCHAR

STARTCHAR L
ENCODING 76
SWIDTH 600 0
DWIDTH 10 0
BBX 9 10 0 0
BITMAP
3E00
0800
0800
1000
1000
1000
1080
2080
2080
FF80
ENDCHAR

STARTCHAR M
ENCODING 77
SWIDTH 600 0
DWIDTH 10 0
BBX 12 10 -1 0
BITMAP
3830
1860
14A0
1520
2540
2640
2440
4080
4080
E1C0
ENDCHAR

STARTCHAR N
ENCODING 78
SWIDTH 600 0
DWIDTH 10 0
BBX 11 10 0 0
BITMAP
30E0
1040
1840
2880
2480
2480
2280
4300
4100
E100
ENDCHAR

STARTCHAR O
ENCODING 79
SWIDTH 600 0
DWIDTH 10 0
BBX 9 10 1 0
BITMAP
1E00
2100
4080
4080
8080
8080
8100
8100
4200
3C00
ENDCHAR

STARTCHAR P
ENCODING 80
SWIDTH 600 0
DWIDTH 10 0
BBX 10 10 0 0
BITMAP
3F80
1040
1040
2040
2080
3F00
2000
4000
4000
F000
ENDCHAR

STARTCHAR Q
ENCODING 81
SWIDTH 600 0
DWIDTH 10 0
BBX 9 11 1 -1
BITMAP
1E00
2100
4080
4080
8080
8080
8100
8100
4200
3D00
6E00
ENDCHAR

STARTCHAR R
ENCODING 82
SWIDTH 600 0
DWIDTH 10 0
BBX 10 10 0 0
BITMAP
3F80
1040
1040
2040
2080
3F00
2200
4200
4100
F180
ENDCHAR

STARTCHAR S
ENCODING 83
SWIDTH 600 0
DWIDTH 10 0
BBX 8 10 1 0
BITMAP
1D
23
41
40
30
0C
02
82
C4
B8
ENDCHAR

STARTCHAR T
ENCODING 84
SWIDTH 600 0
DWIDTH 10 0
BBX 8 10 2 0
BITMAP
7F
49
49
10
10
10
10
20
20
F8
ENDCHAR

STARTCHAR U
ENCODING 85
SWIDTH 600 0
DWIDTH 10 0
BBX 10 10 1 0
BITMAP
71C0
2080
2080
4100
4100
4100
8200
8200
8400
7800
ENDCHAR

STARTCHAR V
ENCODING 86
SWIDTH 600 0
DWIDTH 10 0
BBX 9 10 2 0
BITMAP
E380
4100
4200
4200
4400
4400
2800
2800
3000
2000
ENDCHAR

STARTCHAR W
ENCODING 87
SWIDTH 600 0
DWIDTH 10 0
BBX 11 10 1 0
BITMAP
F1E0
4040
4440
4C80
4C80
5500
5500
6600
6600
4400
ENDCHAR

STARTCHAR X
ENCODING 88
SWIDTH 600 0
DWIDTH 10 0
BBX 10 10 0 0
BITMAP
39C0
1080
0900
0A00
0400
0C00
1200
2200
4100
E380
ENDCHAR

STARTCHAR Y
ENCODING 89
SWIDTH 600 0
DWIDTH 10 0
BBX 9 10 2 0
BITMAP
E380
4100
4200
2400
1800
1000
1000
2000
2000
F800
ENDCHAR

STARTCHAR Z
ENCODING 90
SWIDTH 600 0
DWIDTH 10 0
BBX 8 10 1 0
BITMAP
3F
21
22
04
08
10
20
42
82
FE
ENDCHAR

STARTCHAR bracketleft
ENCODING 91
SWIDTH 600 0
DWIDTH 10 0
BBX 5 12 3 -2
BITMAP
38
20
20
20
40
40
40
40
80
80
80
E0
ENDCHAR

STARTCHAR backslash
ENCODING 92
SWIDTH 600 0
DWIDTH 10 0
BBX 4 14 4 -2
BITMAP
80
80
80
80
40
40
40
20
20
20
10
10
10
10
ENDCHAR

STARTCHAR bracketright
ENCODING 93
SWIDTH 600 0
DWIDTH 10 0
BBX 5 12 3 -2
BITMAP
38
08
08
08
10
10
10
10
20
20
20
E0
ENDCHAR

STARTCHAR asciicircum
ENCODING 94
SWIDTH 600 0
DWIDTH 10 0
BBX 7 5 2 6
BITMAP
08
18
24
44
82
ENDCHAR

STARTCHAR underscore
ENCODING 95
SWIDTH 600 0
DWIDTH 10 0
BBX 10 1 0 -2
BITMAP
FFC0
ENDCHAR

STARTCHAR quoteleft
ENCODING 96
SWIDTH 600 0
DWIDTH 10 0
BBX 4 4 4 6
BITMAP
C0
40
20
10
ENDCHAR

STARTCHAR a
ENCODING 97
SWIDTH 600 0
DWIDTH 10 0
BBX 8 7 1 0
BITMAP
3E
01
3F
41
82
86
7B
ENDCHAR

STARTCHAR b
ENCODING 98
SWIDTH 600 0
DWIDTH 10 0
BBX 9 10 1 0
BITMAP
3000
1000
1000
2F00
3080
2080
4080
4100
6300
DC00
ENDCHAR

STARTCHAR c
ENCODING 99
SWIDTH 600 0
DWIDTH 10 0
BBX 9 7 1 0
BITMAP
1C80
6300
4100
8000
8000
8600
7800
ENDCHAR

STARTCHAR d
ENCODING 100
SWIDTH 600 0
DWIDTH 10 0
BBX 9 10 1 0
BITMAP
0180
0080
0080
1D00
6300
4100
8100
8200
8600
7B00
ENDCHAR

STARTCHAR e
ENCODING 101
SWIDTH 600 0
DWIDTH 10 0
BBX 8 7 1 0
BITMAP
1C
62
41
FF
80
86
78
ENDCHAR

STARTCHAR f
ENCODING 102
SWIDTH 600 0
DWIDTH 10 0
BBX 9 10 1 0
BITMAP
0780
0800
0800
7F00
1000
1000
1000
2000
2000
FC00
ENDCHAR

STARTCHAR g
ENCODING 103
SWIDTH 600 0
DWIDTH 10 0
BBX 9 10 1 -3
BITMAP
1D80
6300
4100
8300
8200
8600
7A00
0400
0400
7800
ENDCHAR

STARTCHAR h
ENCODING 104
SWIDTH 600 0
DWIDTH 10 0
BBX 8 10 1 0
BITMAP
30
10
10
2E
31
21
21
42
42
E7
ENDCHAR

STARTCHAR i
ENCODING 105
SWIDTH 600 0
DWIDTH 10 0
BBX 7 10 1 0
BITMAP
08
08
00
38
08
08
10
10
10
FE
ENDCHAR

STARTCHAR j
ENCODING 106
SWIDTH 600 0
DWIDTH 10 0
BBX 8 13 0 -3
BITMAP
01
01
00
1F
01
01
02
02
02
04
04
08
F0
ENDCHAR

STARTCHAR k
ENCODING 107
SWIDTH 600 0
DWIDTH 10 0
BBX 8 10 1 0
BITMAP
30
10
10
27
24
28
50
48
44
CE
ENDCHAR

STARTCHAR l
ENCODING 108
SWIDTH 600 0
DWIDTH 10 0
BBX 7 10 2 0
BITMAP
3C
04
04
08
08
08
10
10
10
FE
ENDCHAR

STARTCHAR m
ENCODING 109
SWIDTH 600 0
DWIDTH 10 0
BBX 10 7 0 0
BITMAP
D980
6640
4440
4440
8880
8880
C880
ENDCHAR

STARTCHAR n
ENCODING 110
SWIDTH 600 0
DWIDTH 10 0
BBX 8 7 1 0
BITMAP
6E
31
21
21
42
42
E7
ENDCHAR

STARTCHAR o
ENCODING 111
SWIDTH 600 0
DWIDTH 10 0
BBX 8 7 1 0
BITMAP
1E
61
41
81
82
86
78
ENDCHAR

STARTCHAR p
ENCODING 112
SWIDTH 600 0
DWIDTH 10 0
BBX 10 11 0 -4
BITMAP
3780
1840
1040
1040
2080
3180
2E00
2000
4000
4000
E000
ENDCHAR

STARTCHAR q
ENCODING 113
SWIDTH 600 0
DWIDTH 10 0
BBX 9 11 1 -4
BITMAP
1D80
6300
4100
8100
8200
8600
7A00
0200
0400
0400
0E00
ENDCHAR

STARTCHAR r
ENCODING 114
SWIDTH 600 0
DWIDTH 10 0
BBX 9 7 1 0
BITMAP
7700
1880
1000
2000
2000
2000
FC00
ENDCHAR

STARTCHAR s
ENCODING 115
SWIDTH 600 0
DWIDTH 10 0
BBX 8 7 1 0
BITMAP
3D
43
60
18
06
C2
BC
ENDCHAR

STARTCHAR t
ENCODING 116
SWIDTH 600 0
DWIDTH 10 0
BBX 6 9 2 0
BITMAP
20
20
FC
40
40
80
80
84
78
ENDCHAR

STARTCHAR u
ENCODING 117
SWIDTH 600 0
DWIDTH 10 0
BBX 7 7 2 0
BITMAP
C6
42
42
84
84
8C
76
ENDCHAR

STARTCHAR v
ENCODING 118
SWIDTH 600 0
DWIDTH 10 0
BBX 9 7 1 0
BITMAP
E380
4100
4200
4400
2400
2800
3000
ENDCHAR

STARTCHAR w
ENCODING 119
SWIDTH 600 0
DWIDTH 10 0
BBX 10 7 1 0
BITMAP
E1C0
4080
4900
5900
6A00
4600
4400
ENDCHAR

STARTCHAR x
ENCODING 120
SWIDTH 600 0
DWIDTH 10 0
BBX 9 7 1 0
BITMAP
7380
2100
1200
1C00
2400
4200
E700
ENDCHAR

STARTCHAR y
ENCODING 121
SWIDTH 600 0
DWIDTH 10 0
BBX 9 10 1 -3
BITMAP
E380
4100
4200
2400
2400
2800
1000
1000
2000
F000
ENDCHAR

STARTCHAR z
ENCODING 122
SWIDTH 600 0
DWIDTH 10 0
BBX 8 7 1 0
BITMAP
7F
42
04
18
20
42
FE
ENDCHAR

STARTCHAR braceleft
ENCODING 123
SWIDTH 600 0
DWIDTH 10 0
BBX 5 13 3 -3
BITMAP
08
10
20
20
20
40
80
40
40
80
80
80
40
ENDCHAR

STARTCHAR bar
ENCODING 124
SWIDTH 600 0
DWIDTH 10 0
BBX 1 13 5 -3
BITMAP
80
80
80
80
80
80
80
80
80
80
80
80
80
ENDCHAR

STARTCHAR braceright
ENCODING 125
SWIDTH 600 0
DWIDTH 10 0
BBX 5 13 3 -3
BITMAP
10
08
08
08
10
10
08
10
20
20
20
40
80
ENDCHAR

STARTCHAR asciitilde
ENCODING 126
SWIDTH 600 0
DWIDTH 10 0
BBX 7 3 2 3
BITMAP
60
92
0C
ENDCHAR

STARTCHAR space
ENCODING 160
SWIDTH 600 0
DWIDTH 11 0
BBX 0 0 0 0
BITMAP
ENDCHAR

STARTCHAR afii10023
ENCODING 161
SWIDTH 600 0
DWIDTH 10 0
BBX 10 12 0 0
BITMAP
1980
0000
3FC0
1040
1040
2400
3C00
2400
2000
4100
4100
FF00
ENDCHAR

STARTCHAR afii10051
ENCODING 162
SWIDTH 600 0
DWIDTH 10 0
BBX 8 10 1 0
BITMAP
7C
92
92
20
2E
31
21
41
42
EC
ENDCHAR

STARTCHAR afii10052
ENCODING 163
SWIDTH 600 0
DWIDTH 10 0
BBX 10 13 0 0
BITMAP
0180
0200
0000
3FC0
0840
0840
1040
1000
1000
1000
2000
2000
F800
ENDCHAR

STARTCHAR afii10053
ENCODING 164
SWIDTH 600 0
DWIDTH 10 0
BBX 10 10 1 0
BITMAP
1E40
2180
4080
4000
FE00
8000
8000
8100
4300
3C00
ENDCHAR

STARTCHAR afii10054
ENCODING 165
SWIDTH 600 0
DWIDTH 10 0
BBX 8 10 1 0
BITMAP
1D
23
41
40
30
0C
02
82
C4
B8
ENDCHAR

STARTCHAR afii10055
ENCODING 166
SWIDTH 600 0
DWIDTH 10 0
BBX 9 10 1 0
BITMAP
3F80
0400
0400
0800
0800
0800
0800
1000
1000
FE00
ENDCHAR

STARTCHAR afii10056
ENCODING 167
SWIDTH 600 0
DWIDTH 10 0
BBX 9 12 1 0
BITMAP
1980
0000
3F80
0400
0400
0800
0800
0800
0800
1000
1000
FE00
ENDCHAR

STARTCHAR afii10057
ENCODING 168
SWIDTH 600 0
DWIDTH 10 0
BBX 10 10 0 0
BITMAP
0FC0
0100
0100
0200
0200
0200
8200
8400
C400
3800
ENDCHAR

STARTCHAR afii10058
ENCODING 169
SWIDTH 600 0
DWIDTH 10 0
BBX 11 10 -1 0
BITMAP
0FC0
0480
0480
0900
09C0
0920
0920
1240
9240
E780
ENDCHAR

STARTCHAR afii10059
ENCODING 170
SWIDTH 600 0
DWIDTH 10 0
BBX 11 10 -1 0
BITMAP
3B80
1100
1100
2200
3FC0
2220
2220
4420
4440
EF80
ENDCHAR

STARTCHAR afii10060
ENCODING 171
SWIDTH 600 0
DWIDTH 10 0
BBX 8 10 1 0
BITMAP
7C
92
92
20
2E
31
21
42
42
E7
ENDCHAR

STARTCHAR afii10061
ENCODING 172
SWIDTH 600 0
DWIDTH 10 0
BBX 10 13 0 0
BITMAP
0180
0200
0000
38C0
1140
1100
2200
3C00
2400
2400
4200
4200
E300
ENDCHAR

STARTCHAR hyphen
ENCODING 173
SWIDTH 600 0
DWIDTH 10 0
BBX 8 1 2 4
BITMAP
FF
ENDCHAR

STARTCHAR afii10062
ENCODING 174
SWIDTH 600 0
DWIDTH 10 0
BBX 10 13 0 0
BITMAP
0880
0F00
0000
71C0
2080
2100
2200
1200
1400
0800
0800
9000
E000
ENDCHAR

STARTCHAR afii10145
ENCODING 175
SWIDTH 600 0
DWIDTH 10 0
BBX 11 12 0 -2
BITMAP
39E0
1040
1040
2080
2080
2080
2080
4100
4100
FF80
0800
0800
ENDCHAR

STARTCHAR afii10017
ENCODING 176
SWIDTH 600 0
DWIDTH 10 0
BBX 10 10 0 0
BITMAP
0F00
0280
0480
0880
0880
1080
3F80
2080
4080
E1C0
ENDCHAR

STARTCHAR afii10018
ENCODING 177
SWIDTH 600 0
DWIDTH 10 0
BBX 9 10 0 0
BITMAP
3F80
1080
1000
2000
3F00
2080
2080
4080
4100
FE00
ENDCHAR

STARTCHAR afii10019
ENCODING 178
SWIDTH 600 0
DWIDTH 10 0
BBX 9 10 0 0
BITMAP
3F00
1080
1080
2100
3F00
2080
2080
4080
4100
FE00
ENDCHAR

STARTCHAR afii10020
ENCODING 179
SWIDTH 600 0
DWIDTH 10 0
BBX 10 10 0 0
BITMAP
3FC0
0840
0840
1040
1000
1000
1000
2000
2000
F800
ENDCHAR

STARTCHAR afii10021
ENCODING 180
SWIDTH 600 0
DWIDTH 10 0
BBX 11 12 0 -2
BITMAP
1FE0
0440
0440
0880
0880
0880
0880
1100
6100
FF80
8080
8080
ENDCHAR

STARTCHAR afii10022
ENCODING 181
SWIDTH 600 0
DWIDTH 10 0
BBX 10 10 0 0
BITMAP
3FC0
1040
1040
2400
3C00
2400
2000
4100
4100
FF00
ENDCHAR

STARTCHAR afii10024
ENCODING 182
SWIDTH 600 0
DWIDTH 10 0
BBX 11 10 0 0
BITMAP
3760
2AA0
0A80
0500
0E00
1500
2500
2900
4900
DD80
ENDCHAR

STARTCHAR afii10025
ENCODING 183
SWIDTH 600 0
DWIDTH 10 0
BBX 10 10 0 0
BITMAP
1700
1880
1040
0080
1F00
0100
0080
0080
8100
7E00
ENDCHAR

STARTCHAR afii10026
ENCODING 184
SWIDTH 600 0
DWIDTH 10 0
BBX 11 10 0 0
BITMAP
3860
10C0
1140
2280
2480
2480
2880
5100
6100
C380
ENDCHAR

STARTCHAR afii10027
ENCODING 185
SWIDTH 600 0
DWIDTH 10 0
BBX 11 13 0 0
BITMAP
0440
0780
0000
3860
10C0
1140
2280
2480
2480
2880
5100
6100
C380
ENDCHAR

STARTCHAR afii10028
ENCODING 186
SWIDTH 600 0
DWIDTH 10 0
BBX 10 10 0 0
BITMAP
3CC0
1140
1100
2200
3C00
2400
2400
4200
4200
E300
ENDCHAR

STARTCHAR afii10029
ENCODING 187
SWIDTH 600 0
DWIDTH 10 0
BBX 11 10 0 0
BITMAP
0FE0
0440
0440
0880
0880
0880
0880
1100
9100
E380
ENDCHAR

STARTCHAR afii10030
ENCODING 188
SWIDTH 600 0
DWIDTH 10 0
BBX 12 10 -1 0
BITMAP
3830
1860
14A0
1520
2540
2640
2440
4080
4080
E1C0
ENDCHAR

STARTCHAR afii10031
ENCODING 189
SWIDTH 600 0
DWIDTH 10 0
BBX 11 10 0 0
BITMAP
38E0
1040
1040
2080
3F80
2080
2080
4100
4100
E380
ENDCHAR

STARTCHAR afii10032
ENCODING 190
SWIDTH 600 0
DWIDTH 10 0
BBX 9 10 1 0
BITMAP
1E00
2100
4080
4080
8080
8080
8100
8100
4200
3C00
ENDCHAR

STARTCHAR afii10033
ENCODING 191
SWIDTH 600 0
DWIDTH 10 0
BBX 11 10 0 0
BITMAP
3FE0
1040
1040
2080
2080
2080
2080
4100
4100
E380
ENDCHAR

STARTCHAR afii10034
ENCODING 192
SWIDTH 600 0
DWIDTH 10 0
BBX 10 10 0 0
BITMAP
3F80
1040
1040
2040
2080
3F00
2000
4000
4000
F000
ENDCHAR

STARTCHAR afii10035
ENCODING 193
SWIDTH 600 0
DWIDTH 10 0
BBX 10 10 1 0
BITMAP
1E40
2180
4080
4000
8000
8000
8000
8100
4300
3C00
ENDCHAR

STARTCHAR afii10036
ENCODING 194
SWIDTH 600 0
DWIDTH 10 0
BBX 8 10 1 0
BITMAP
7F
49
49
10
10
10
10
20
20
F8
ENDCHAR

STARTCHAR afii10037
ENCODING 195
SWIDTH 600 0
DWIDTH 10 0
BBX 10 13 0 0
BITMAP
0880
0F00
0000
71C0
2080
2100
2200
1200
1400
0800
0800
9000
E000
ENDCHAR

STARTCHAR afii10038
ENCODING 196
SWIDTH 600 0
DWIDTH 10 0
BBX 9 10 1 0
BITMAP
0E00
0400
7F00
8880
8880
8880
8880
7F00
1000
3800
ENDCHAR

STARTCHAR afii10039
ENCODING 197
SWIDTH 600 0
DWIDTH 10 0
BBX 10 10 0 0
BITMAP
39C0
1080
0900
0A00
0400
0C00
1200
2200
4100
E380
ENDCHAR

STARTCHAR afii10040
ENCODING 198
SWIDTH 600 0
DWIDTH 10 0
BBX 11 12 0 -2
BITMAP
38E0
1040
1040
2080
2080
2080
2080
4100
4100
FF80
0080
0080
ENDCHAR

STARTCHAR afii10041
ENCODING 199
SWIDTH 600 0
DWIDTH 10 0
BBX 9 10 1 0
BITMAP
E380
4100
4100
8200
8200
4600
3A00
0400
0400
3E00
ENDCHAR

STARTCHAR afii10042
ENCODING 200
SWIDTH 600 0
DWIDTH 10 0
BBX 13 10 -1 0
BITMAP
3BB8
1110
1110
2220
2220
2220
2220
4440
4440
FFE0
ENDCHAR

STARTCHAR afii10043
ENCODING 201
SWIDTH 600 0
DWIDTH 10 0
BBX 13 12 -1 -2
BITMAP
3BB8
1110
1110
2220
2220
2220
2220
4440
4440
FFE0
0020
0020
ENDCHAR

STARTCHAR afii10044
ENCODING 202
SWIDTH 600 0
DWIDTH 10 0
BBX 9 10 1 0
BITMAP
7C00
4800
4800
9000
1F00
1080
1080
2080
2100
7E00
ENDCHAR

STARTCHAR afii10045
ENCODING 203
SWIDTH 600 0
DWIDTH 10 0
BBX 12 10 -1 0
BITMAP
3870
1020
1020
2040
3C40
2240
2240
4280
4480
F9C0
ENDCHAR

STARTCHAR afii10046
ENCODING 204
SWIDTH 600 0
DWIDTH 10 0
BBX 8 10 1 0
BITMAP
38
10
10
20
3E
21
21
41
42
FC
ENDCHAR

STARTCHAR afii10047
ENCODING 205
SWIDTH 600 0
DWIDTH 10 0
BBX 9 10 1 0
BITMAP
2E00
3100
2080
0080
1F80
0080
0100
8100
C200
3C00
ENDCHAR

STARTCHAR afii10048
ENCODING 206
SWIDTH 600 0
DWIDTH 10 0
BBX 11 10 -1 0
BITMAP
39C0
1220
1420
2420
2820
3820
2840
4840
4880
E700
ENDCHAR

STARTCHAR afii10049
ENCODING 207
SWIDTH 600 0
DWIDTH 10 0
BBX 10 10 0 0
BITMAP
0FC0
1080
2080
2100
1100
0F00
1100
2200
4200
CF00
ENDCHAR

STARTCHAR afii10065
ENCODING 208
SWIDTH 600 0
DWIDTH 10 0
BBX 8 7 1 0
BITMAP
3E
01
3F
41
82
86
7B
ENDCHAR

STARTCHAR afii10066
ENCODING 209
SWIDTH 600 0
DWIDTH 10 0
BBX 9 10 1 0
BITMAP
0080
1F00
2000
5E00
6100
4100
8100
8200
8600
7800
ENDCHAR

STARTCHAR afii10067
ENCODING 210
SWIDTH 600 0
DWIDTH 10 0
BBX 8 7 1 0
BITMAP
7E
21
21
7E
41
41
FE
ENDCHAR

STARTCHAR afii10068
ENCODING 211
SWIDTH 600 0
DWIDTH 10 0
BBX 9 7 1 0
BITMAP
7F80
1080
1080
2000
2000
2000
F800
ENDCHAR

STARTCHAR afii10069
ENCODING 212
SWIDTH 600 0
DWIDTH 10 0
BBX 10 9 0 -2
BITMAP
3FC0
0880
0880
1100
1100
6100
FF80
8080
8080
ENDCHAR

STARTCHAR afii10070
ENCODING 213
SWIDTH 600 0
DWIDTH 10 0
BBX 8 7 1 0
BITMAP
1C
62
41
FF
80
86
78
ENDCHAR

STARTCHAR afii10072
ENCODING 214
SWIDTH 600 0
DWIDTH 10 0
BBX 10 7 0 0
BITMAP
6EC0
5540
1500
1E00
2A00
4900
DD80
ENDCHAR

STARTCHAR afii10073
ENCODING 215
SWIDTH 600 0
DWIDTH 10 0
BBX 9 7 1 0
BITMAP
5F00
6080
4080
1F00
0100
8200
7C00
ENDCHAR

STARTCHAR afii10074
ENCODING 216
SWIDTH 600 0
DWIDTH 10 0
BBX 9 7 1 0
BITMAP
7180
2300
2500
5A00
6200
4200
C700
ENDCHAR

STARTCHAR afii10075
ENCODING 217
SWIDTH 600 0
DWIDTH 10 0
BBX 9 10 1 0
BITMAP
1100
1E00
0000
7180
2300
2500
4A00
5200
6200
C700
ENDCHAR

STARTCHAR afii10076
ENCODING 218
SWIDTH 600 0
DWIDTH 10 0
BBX 9 7 1 0
BITMAP
7180
2280
2400
7800
4400
4200
E300
ENDCHAR

STARTCHAR afii10077
ENCODING 219
SWIDTH 600 0
DWIDTH 10 0
BBX 10 7 0 0
BITMAP
1FC0
0880
0880
1100
1100
9100
E380
ENDCHAR

STARTCHAR afii10078
ENCODING 220
SWIDTH 600 0
DWIDTH 10 0
BBX 11 7 0 0
BITMAP
70E0
30C0
2940
4A80
4C80
4880
E1C0
ENDCHAR

STARTCHAR afii10079
ENCODING 221
SWIDTH 600 0
DWIDTH 10 0
BBX 9 7 1 0
BITMAP
7380
2100
2100
7E00
4200
4200
E700
ENDCHAR

STARTCHAR afii10080
ENCODING 222
SWIDTH 600 0
DWIDTH 10 0
BBX 8 7 1 0
BITMAP
1E
61
41
81
82
86
78
ENDCHAR

STARTCHAR afii10081
ENCODING 223
SWIDTH 600 0
DWIDTH 10 0
BBX 9 7 1 0
BITMAP
7F80
2100
2100
4200
4200
4200
E700
ENDCHAR

STARTCHAR afii10082
ENCODING 224
SWIDTH 600 0
DWIDTH 10 0
BBX 10 11 0 -4
BITMAP
3780
1840
1040
1040
2080
3180
2E00
2000
4000
4000
E000
ENDCHAR

STARTCHAR afii10083
ENCODING 225
SWIDTH 600 0
DWIDTH 10 0
BBX 9 7 1 0
BITMAP
1C80
6300
4100
8000
8000
8600
7800
ENDCHAR

STARTCHAR afii10084
ENCODING 226
SWIDTH 600 0
DWIDTH 10 0
BBX 7 7 2 0
BITMAP
FE
92
92
20
20
20
F8
ENDCHAR

STARTCHAR afii10085
ENCODING 227
SWIDTH 600 0
DWIDTH 10 0
BBX 10 10 0 -3
BITMAP
71C0
2080
2100
2200
1200
1400
0800
0800
9000
E000
ENDCHAR

STARTCHAR afii10086
ENCODING 228
SWIDTH 600 0
DWIDTH 10 0
BBX 8 13 1 -3
BITMAP
1C
04
04
3E
49
89
91
91
92
7C
20
20
F8
ENDCHAR

STARTCHAR afii10087
ENCODING 229
SWIDTH 600 0
DWIDTH 10 0
BBX 9 7 1 0
BITMAP
7380
2100
1200
1C00
2400
4200
E700
ENDCHAR

STARTCHAR afii10088
ENCODING 230
SWIDTH 600 0
DWIDTH 10 0
BBX 9 9 1 -2
BITMAP
7380
2100
2100
4200
4200
4200
FF00
0100
0100
ENDCHAR

STARTCHAR afii10089
ENCODING 231
SWIDTH 600 0
DWIDTH 10 0
BBX 8 7 1 0
BITMAP
E7
42
82
8C
74
04
1E
ENDCHAR

STARTCHAR afii10090
ENCODING 232
SWIDTH 600 0
DWIDTH 10 0
BBX 12 7 0 0
BITMAP
7770
2220
2220
4440
4440
4440
FFE0
ENDCHAR

STARTCHAR afii10091
ENCODING 233
SWIDTH 600 0
DWIDTH 10 0
BBX 12 9 0 -2
BITMAP
7770
2220
2220
4440
4440
4440
FFE0
0020
0020
ENDCHAR

STARTCHAR afii10092
ENCODING 234
SWIDTH 600 0
DWIDTH 10 0
BBX 8 7 1 0
BITMAP
F8
90
90
1E
21
21
7E
ENDCHAR

STARTCHAR afii10093
ENCODING 235
SWIDTH 600 0
DWIDTH 10 0
BBX 11 7 0 0
BITMAP
70E0
2040
2040
3C40
4280
4280
FDC0
ENDCHAR

STARTCHAR afii10094
ENCODING 236
SWIDTH 600 0
DWIDTH 10 0
BBX 8 7 1 0
BITMAP
70
20
20
3E
41
41
FE
ENDCHAR

STARTCHAR afii10095
ENCODING 237
SWIDTH 600 0
DWIDTH 10 0
BBX 8 7 1 0
BITMAP
5E
61
41
0F
02
86
78
ENDCHAR

STARTCHAR afii10096
ENCODING 238
SWIDTH 600 0
DWIDTH 10 0
BBX 10 7 0 0
BITMAP
7380
2440
2840
3840
4840
4880
F700
ENDCHAR

STARTCHAR afii10097
ENCODING 239
SWIDTH 600 0
DWIDTH 10 0
BBX 9 7 1 0
BITMAP
1F80
2100
2100
1E00
2200
4200
CF00
ENDCHAR

STARTCHAR afii61352
ENCODING 240
SWIDTH 600 0
DWIDTH 10 0
BBX 11 10 0 0
BITMAP
3380
1960
1960
2AC0
2AC0
2AC0
2A00
4CC0
4C00
E400
ENDCHAR

STARTCHAR afii10071
ENCODING 241
SWIDTH 600 0
DWIDTH 10 0
BBX 9 10 1 0
BITMAP
1980
0000
0000
1C00
6200
4100
FF00
8000
8300
7C00
ENDCHAR

STARTCHAR afii10099
ENCODING 242
SWIDTH 600 0
DWIDTH 10 0
BBX 8 13 1 -3
BITMAP
30
7E
10
2E
31
21
21
42
42
E2
02
04
78
ENDCHAR

STARTCHAR afii10100
ENCODING 243
SWIDTH 600 0
DWIDTH 10 0
BBX 9 10 1 0
BITMAP
0300
0400
0000
7F80
1080
1080
1080
2000
2000
F800
ENDCHAR

STARTCHAR afii10101
ENCODING 244
SWIDTH 600 0
DWIDTH 10 0
BBX 8 7 1 0
BITMAP
1D
63
41
F0
80
83
7C
ENDCHAR

STARTCHAR afii10102
ENCODING 245
SWIDTH 600 0
DWIDTH 10 0
BBX 8 7 1 0
BITMAP
3D
43
60
18
06
C2
BC
ENDCHAR

STARTCHAR afii10103
ENCODING 246
SWIDTH 600 0
DWIDTH 10 0
BBX 7 11 2 0
BITMAP
06
08
00
00
38
08
08
10
10
10
FE
ENDCHAR

STARTCHAR afii10104
ENCODING 247
SWIDTH 600 0
DWIDTH 10 0
BBX 8 10 2 0
BITMAP
33
00
00
38
08
08
10
10
10
FE
ENDCHAR

STARTCHAR afii10105
ENCODING 248
SWIDTH 600 0
DWIDTH 10 0
BBX 8 14 1 -3
BITMAP
01
01
00
00
1F
01
01
02
02
02
04
04
08
F0
ENDCHAR

STARTCHAR afii10106
ENCODING 249
SWIDTH 600 0
DWIDTH 10 0
BBX 9 7 1 0
BITMAP
1F80
0A00
0A00
1700
1480
9480
EF00
ENDCHAR

STARTCHAR afii10107
ENCODING 250
SWIDTH 600 0
DWIDTH 10 0
BBX 10 7 0 0
BITMAP
7700
2200
2200
3F80
4440
4440
EF80
ENDCHAR

STARTCHAR afii10108
ENCODING 251
SWIDTH 600 0
DWIDTH 10 0
BBX 8 10 1 0
BITMAP
30
7E
10
2E
31
21
21
42
42
E7
ENDCHAR

STARTCHAR afii10109
ENCODING 252
SWIDTH 600 0
DWIDTH 10 0
BBX 9 10 1 0
BITMAP
0600
0800
0000
7180
2280
2400
7800
4400
4200
E300
ENDCHAR

STARTCHAR section
ENCODING 253
SWIDTH 600 0
DWIDTH 10 0
BBX 9 12 1 -1
BITMAP
0F80
1080
2000
7000
8800
4600
3100
0880
0700
0200
8400
F800
ENDCHAR

STARTCHAR afii10110
ENCODING 254
SWIDTH 600 0
DWIDTH 10 0
BBX 10 13 0 -3
BITMAP
1100
1E00
0000
71C0
2080
2100
2200
1200
1400
0800
0800
9000
E000
ENDCHAR

STARTCHAR afii10193
ENCODING 255
SWIDTH 600 0
DWIDTH 10 0
BBX 9 9 1 -2
BITMAP
7380
2100
2100
4200
4200
4200
FF00
1000
1000
ENDCHAR
ENDFONT
